# Blender v2.77 (sub 0) OBJ File: 'controller_mock.blend'
# www.blender.org
mtllib controller_mock.mtl
o Icosphere
v 0.001823 0.005700 -0.135479
v -0.010794 0.023067 -0.148746
v -0.018593 -0.000933 -0.148746
v 0.001823 -0.015766 -0.148746
v 0.022239 -0.000933 -0.148746
v 0.014440 0.023067 -0.148746
v -0.018593 0.012333 -0.170213
v -0.010794 -0.011667 -0.170213
v 0.014440 -0.011667 -0.170213
v 0.022239 0.012333 -0.170213
v 0.001823 0.027166 -0.170213
v 0.001823 0.005700 -0.183480
v -0.010177 0.001801 -0.139064
v -0.005593 0.015908 -0.139064
v -0.017593 0.012009 -0.146862
v 0.001823 0.026116 -0.146862
v 0.009239 0.015908 -0.139064
v 0.001823 -0.006918 -0.139064
v -0.010177 -0.010817 -0.146862
v 0.013823 0.001801 -0.139064
v 0.013823 -0.010817 -0.146862
v 0.021239 0.012009 -0.146862
v -0.005593 0.028525 -0.159479
v 0.009239 0.028525 -0.159479
v -0.022177 0.005700 -0.159479
v -0.017593 0.019807 -0.159479
v -0.005593 -0.017125 -0.159479
v -0.017593 -0.008407 -0.159479
v 0.021239 -0.008407 -0.159479
v 0.009239 -0.017125 -0.159479
v 0.021239 0.019807 -0.159479
v 0.025823 0.005700 -0.159479
v -0.010177 0.022217 -0.172097
v -0.017593 -0.000609 -0.172097
v 0.001823 -0.014716 -0.172097
v 0.021239 -0.000609 -0.172097
v 0.013823 0.022217 -0.172097
v -0.010177 0.009599 -0.179895
v 0.001823 0.018318 -0.179895
v -0.005593 -0.004508 -0.179895
v 0.009239 -0.004508 -0.179895
v 0.013823 0.009599 -0.179895
v 0.027641 0.005130 -0.002611
v 0.027641 0.005130 -0.129611
v 0.027141 0.010203 -0.002611
v 0.027141 0.010203 -0.129611
v 0.025662 0.015080 -0.002611
v 0.025662 0.015080 -0.129611
v 0.023259 0.019575 -0.002611
v 0.023259 0.019575 -0.129611
v 0.020025 0.023515 -0.002611
v 0.020025 0.023515 -0.129611
v 0.016086 0.026748 -0.002611
v 0.016086 0.026748 -0.129611
v 0.011590 0.029151 -0.002611
v 0.011590 0.029151 -0.129611
v 0.006713 0.030631 -0.002611
v 0.006713 0.030631 -0.129611
v 0.001641 0.031130 -0.002611
v 0.001641 0.031130 -0.129611
v -0.003432 0.030631 -0.002611
v -0.003432 0.030631 -0.129611
v -0.008309 0.029151 -0.002611
v -0.008309 0.029151 -0.129611
v -0.012804 0.026748 -0.002611
v -0.012804 0.026748 -0.129611
v -0.016744 0.023515 -0.002611
v -0.016744 0.023515 -0.129611
v -0.019977 0.019575 -0.002611
v -0.019977 0.019575 -0.129611
v -0.022380 0.015080 -0.002611
v -0.022380 0.015080 -0.129611
v -0.023860 0.010203 -0.002611
v -0.023860 0.010203 -0.129611
v -0.024359 0.005130 -0.002611
v -0.024359 0.005130 -0.129611
v -0.023860 0.000058 -0.002611
v -0.023860 0.000058 -0.129611
v -0.022380 -0.004820 -0.002611
v -0.022380 -0.004820 -0.129611
v -0.019977 -0.009315 -0.002611
v -0.019977 -0.009315 -0.129611
v -0.016744 -0.013255 -0.002611
v -0.016744 -0.013255 -0.129611
v -0.012804 -0.016488 -0.002611
v -0.012804 -0.016488 -0.129611
v -0.008309 -0.018891 -0.002611
v -0.008309 -0.018891 -0.129611
v -0.003432 -0.020370 -0.002611
v -0.003432 -0.020370 -0.129611
v 0.001641 -0.020870 -0.002611
v 0.001641 -0.020870 -0.129611
v 0.006713 -0.020370 -0.002611
v 0.006713 -0.020370 -0.129611
v 0.011591 -0.018891 -0.002611
v 0.011591 -0.018891 -0.129611
v 0.016086 -0.016488 -0.002611
v 0.016086 -0.016488 -0.129611
v 0.020026 -0.013254 -0.002611
v 0.020026 -0.013254 -0.129611
v 0.023259 -0.009315 -0.002611
v 0.023259 -0.009315 -0.129611
v 0.025662 -0.004819 -0.002611
v 0.025662 -0.004819 -0.129611
v 0.027141 0.000058 -0.002611
v 0.027141 0.000058 -0.129611
vn -0.3151 0.1024 0.9435
vn -0.2680 0.7002 0.6617
vn -0.1947 -0.2680 0.9435
vn 0.1947 -0.2680 0.9435
vn 0.3151 0.1024 0.9435
vn -0.2680 0.9050 0.3304
vn -0.9435 0.0247 0.3304
vn -0.3151 -0.8897 0.3304
vn 0.7488 -0.5746 0.3304
vn 0.7779 0.5346 0.3304
vn -0.5831 0.8026 0.1256
vn -0.9435 -0.3066 0.1256
vn 0.0000 -0.9921 0.1256
vn 0.9435 -0.3066 0.1256
vn 0.5831 0.8026 0.1256
vn -0.6284 0.4089 -0.6617
vn -0.5831 -0.4713 -0.6617
vn 0.2680 -0.7002 -0.6617
vn 0.7488 0.0385 -0.6617
vn 0.1947 0.7240 -0.6617
vn 0.1947 0.2680 -0.9435
vn 0.3568 0.4911 -0.7947
vn 0.6284 0.4089 -0.6617
vn 0.3151 -0.1024 -0.9435
vn 0.5773 -0.1876 -0.7947
vn 0.5831 -0.4713 -0.6617
vn 0.0000 -0.3313 -0.9435
vn 0.0000 -0.6071 -0.7947
vn -0.2680 -0.7002 -0.6617
vn -0.3151 -0.1024 -0.9435
vn -0.5773 -0.1876 -0.7947
vn -0.7488 0.0385 -0.6617
vn -0.1947 0.2680 -0.9435
vn -0.3568 0.4911 -0.7947
vn -0.1947 0.7240 -0.6617
vn 0.3151 0.8897 -0.3304
vn 0.5773 0.7947 -0.1876
vn 0.7488 0.5746 -0.3304
vn 0.9435 -0.0247 -0.3304
vn 0.9342 -0.3035 -0.1876
vn 0.7779 -0.5346 -0.3304
vn 0.2680 -0.9050 -0.3304
vn 0.0000 -0.9822 -0.1876
vn -0.2680 -0.9050 -0.3304
vn -0.7779 -0.5346 -0.3304
vn -0.9342 -0.3035 -0.1876
vn -0.9435 -0.0247 -0.3304
vn -0.7488 0.5746 -0.3304
vn -0.5773 0.7947 -0.1876
vn -0.3151 0.8897 -0.3304
vn 0.9435 0.3066 -0.1256
vn 0.9342 0.3035 0.1876
vn 0.9435 0.0247 0.3304
vn 0.5831 -0.8026 -0.1256
vn 0.5773 -0.7947 0.1876
vn 0.3151 -0.8897 0.3304
vn -0.5831 -0.8026 -0.1256
vn -0.5773 -0.7947 0.1876
vn -0.7488 -0.5746 0.3304
vn -0.9435 0.3066 -0.1256
vn -0.9342 0.3035 0.1876
vn -0.7779 0.5346 0.3304
vn 0.0000 0.9921 -0.1256
vn 0.0000 0.9822 0.1876
vn 0.2680 0.9050 0.3304
vn 0.5831 0.4713 0.6617
vn 0.5773 0.1876 0.7947
vn 0.7488 -0.0385 0.6617
vn 0.6284 -0.4089 0.6617
vn 0.3568 -0.4911 0.7947
vn 0.1947 -0.7240 0.6617
vn -0.1947 -0.7240 0.6617
vn -0.3568 -0.4911 0.7947
vn -0.6284 -0.4089 0.6617
vn 0.2680 0.7002 0.6617
vn 0.0000 0.6071 0.7947
vn 0.0000 0.3313 0.9435
vn -0.7488 -0.0385 0.6617
vn -0.5773 0.1876 0.7947
vn -0.5831 0.4713 0.6617
vn 0.9952 0.0980 0.0000
vn 0.9569 0.2903 0.0000
vn 0.8819 0.4714 0.0000
vn 0.7730 0.6344 0.0000
vn 0.6344 0.7730 0.0000
vn 0.4714 0.8819 0.0000
vn 0.2903 0.9569 0.0000
vn 0.0980 0.9952 0.0000
vn -0.0980 0.9952 0.0000
vn -0.2903 0.9569 0.0000
vn -0.4714 0.8819 0.0000
vn -0.6344 0.7730 0.0000
vn -0.7730 0.6344 0.0000
vn -0.8819 0.4714 0.0000
vn -0.9569 0.2903 0.0000
vn -0.9952 0.0980 0.0000
vn -0.9952 -0.0980 0.0000
vn -0.9569 -0.2903 0.0000
vn -0.8819 -0.4714 0.0000
vn -0.7730 -0.6344 0.0000
vn -0.6344 -0.7730 0.0000
vn -0.4714 -0.8819 0.0000
vn -0.2903 -0.9569 0.0000
vn -0.0980 -0.9952 0.0000
vn 0.0980 -0.9952 0.0000
vn 0.2903 -0.9569 0.0000
vn 0.4714 -0.8819 0.0000
vn 0.6344 -0.7730 0.0000
vn 0.7730 -0.6344 0.0000
vn 0.8819 -0.4714 0.0000
vn 0.0000 0.0000 -1.0000
vn 0.9569 -0.2903 0.0000
vn 0.9952 -0.0980 0.0000
vn 0.0000 0.0000 1.0000
usemtl None
s off
f 1//1 14//1 13//1
f 2//2 14//2 16//2
f 1//3 13//3 18//3
f 1//4 18//4 20//4
f 1//5 20//5 17//5
f 2//6 16//6 23//6
f 3//7 15//7 25//7
f 4//8 19//8 27//8
f 5//9 21//9 29//9
f 6//10 22//10 31//10
f 2//11 23//11 26//11
f 3//12 25//12 28//12
f 4//13 27//13 30//13
f 5//14 29//14 32//14
f 6//15 31//15 24//15
f 7//16 33//16 38//16
f 8//17 34//17 40//17
f 9//18 35//18 41//18
f 10//19 36//19 42//19
f 11//20 37//20 39//20
f 39//21 42//21 12//21
f 39//22 37//22 42//22
f 37//23 10//23 42//23
f 42//24 41//24 12//24
f 42//25 36//25 41//25
f 36//26 9//26 41//26
f 41//27 40//27 12//27
f 41//28 35//28 40//28
f 35//29 8//29 40//29
f 40//30 38//30 12//30
f 40//31 34//31 38//31
f 34//32 7//32 38//32
f 38//33 39//33 12//33
f 38//34 33//34 39//34
f 33//35 11//35 39//35
f 24//36 37//36 11//36
f 24//37 31//37 37//37
f 31//38 10//38 37//38
f 32//39 36//39 10//39
f 32//40 29//40 36//40
f 29//41 9//41 36//41
f 30//42 35//42 9//42
f 30//43 27//43 35//43
f 27//44 8//44 35//44
f 28//45 34//45 8//45
f 28//46 25//46 34//46
f 25//47 7//47 34//47
f 26//48 33//48 7//48
f 26//49 23//49 33//49
f 23//50 11//50 33//50
f 31//51 32//51 10//51
f 31//52 22//52 32//52
f 22//53 5//53 32//53
f 29//54 30//54 9//54
f 29//55 21//55 30//55
f 21//56 4//56 30//56
f 27//57 28//57 8//57
f 27//58 19//58 28//58
f 19//59 3//59 28//59
f 25//60 26//60 7//60
f 25//61 15//61 26//61
f 15//62 2//62 26//62
f 23//63 24//63 11//63
f 23//64 16//64 24//64
f 16//65 6//65 24//65
f 17//66 22//66 6//66
f 17//67 20//67 22//67
f 20//68 5//68 22//68
f 20//69 21//69 5//69
f 20//70 18//70 21//70
f 18//71 4//71 21//71
f 18//72 19//72 4//72
f 18//73 13//73 19//73
f 13//74 3//74 19//74
f 16//75 17//75 6//75
f 16//76 14//76 17//76
f 14//77 1//77 17//77
f 13//78 15//78 3//78
f 13//79 14//79 15//79
f 14//80 2//80 15//80
f 43//81 44//81 46//81 45//81
f 45//82 46//82 48//82 47//82
f 47//83 48//83 50//83 49//83
f 49//84 50//84 52//84 51//84
f 51//85 52//85 54//85 53//85
f 53//86 54//86 56//86 55//86
f 55//87 56//87 58//87 57//87
f 57//88 58//88 60//88 59//88
f 59//89 60//89 62//89 61//89
f 61//90 62//90 64//90 63//90
f 63//91 64//91 66//91 65//91
f 65//92 66//92 68//92 67//92
f 67//93 68//93 70//93 69//93
f 69//94 70//94 72//94 71//94
f 71//95 72//95 74//95 73//95
f 73//96 74//96 76//96 75//96
f 75//97 76//97 78//97 77//97
f 77//98 78//98 80//98 79//98
f 79//99 80//99 82//99 81//99
f 81//100 82//100 84//100 83//100
f 83//101 84//101 86//101 85//101
f 85//102 86//102 88//102 87//102
f 87//103 88//103 90//103 89//103
f 89//104 90//104 92//104 91//104
f 91//105 92//105 94//105 93//105
f 93//106 94//106 96//106 95//106
f 95//107 96//107 98//107 97//107
f 97//108 98//108 100//108 99//108
f 99//109 100//109 102//109 101//109
f 101//110 102//110 104//110 103//110
f 46//111 44//111 106//111 104//111 102//111 100//111 98//111 96//111 94//111 92//111 90//111 88//111 86//111 84//111 82//111 80//111 78//111 76//111 74//111 72//111 70//111 68//111 66//111 64//111 62//111 60//111 58//111 56//111 54//111 52//111 50//111 48//111
f 103//112 104//112 106//112 105//112
f 105//113 106//113 44//113 43//113
f 43//114 45//114 47//114 49//114 51//114 53//114 55//114 57//114 59//114 61//114 63//114 65//114 67//114 69//114 71//114 73//114 75//114 77//114 79//114 81//114 83//114 85//114 87//114 89//114 91//114 93//114 95//114 97//114 99//114 101//114 103//114 105//114
